<?xml version="1.0" encoding="UTF-8"?>
<svg id="Layer_1" data-name="Layer 1" xmlns="http://www.w3.org/2000/svg" xmlns:xlink="http://www.w3.org/1999/xlink" viewBox="0 0 542 356">
  <defs>
    <style>
      .cls-1 {
        fill: url(#linear-gradient);
      }

      .cls-2 {
        fill: #ffce00;
      }

      .cls-3 {
        fill: url(#linear-gradient-8);
      }

      .cls-4 {
        fill: url(#linear-gradient-9);
      }

      .cls-5 {
        fill: url(#linear-gradient-3);
      }

      .cls-6 {
        fill: url(#linear-gradient-4);
      }

      .cls-7 {
        fill: url(#linear-gradient-2);
      }

      .cls-8 {
        fill: url(#linear-gradient-6);
      }

      .cls-9 {
        fill: url(#linear-gradient-7);
      }

      .cls-10 {
        fill: url(#linear-gradient-5);
      }

      .cls-11 {
        fill: url(#linear-gradient-14);
      }

      .cls-12 {
        fill: url(#linear-gradient-13);
      }

      .cls-13 {
        fill: url(#linear-gradient-12);
      }

      .cls-14 {
        fill: url(#linear-gradient-10);
      }

      .cls-15 {
        fill: url(#linear-gradient-11);
      }
    </style>
    <linearGradient id="linear-gradient" x1="15" y1="180.38" x2="152.37" y2="180.38" gradientUnits="userSpaceOnUse">
      <stop offset="0" stop-color="#f83600"/>
      <stop offset=".67" stop-color="#fc7200"/>
      <stop offset="1" stop-color="#fe8c00"/>
    </linearGradient>
    <linearGradient id="linear-gradient-2" x1="116.28" y1="284.51" x2="293.55" y2="284.51" xlink:href="#linear-gradient"/>
    <linearGradient id="linear-gradient-3" x1="115.59" y1="62.85" x2="293.1" y2="62.85" xlink:href="#linear-gradient"/>
    <linearGradient id="linear-gradient-4" x1="341.95" y1="179.31" x2="405.87" y2="179.31" xlink:href="#linear-gradient"/>
    <linearGradient id="linear-gradient-5" x1="285.03" y1="171.15" x2="341.58" y2="171.15" xlink:href="#linear-gradient"/>
    <linearGradient id="linear-gradient-6" x1="406.28" y1="187.54" x2="458.02" y2="187.54" xlink:href="#linear-gradient"/>
    <linearGradient id="linear-gradient-7" x1="468.29" y1="159.52" x2="527" y2="159.52" xlink:href="#linear-gradient"/>
    <linearGradient id="linear-gradient-8" x1="278.6" y1="199.11" x2="332.85" y2="199.11" xlink:href="#linear-gradient"/>
    <linearGradient id="linear-gradient-9" x1="417.88" y1="159.52" x2="467.89" y2="159.52" xlink:href="#linear-gradient"/>
    <linearGradient id="linear-gradient-10" x1="476.49" y1="187.7" x2="502.42" y2="187.7" xlink:href="#linear-gradient"/>
    <linearGradient id="linear-gradient-11" x1="116.63" y1="179.34" x2="182.54" y2="179.34" xlink:href="#linear-gradient"/>
    <linearGradient id="linear-gradient-12" x1="214.06" y1="179.31" x2="277.3" y2="179.31" xlink:href="#linear-gradient"/>
    <linearGradient id="linear-gradient-13" x1="182.91" y1="179.34" x2="213.7" y2="179.34" xlink:href="#linear-gradient"/>
    <linearGradient id="linear-gradient-14" x1="240.41" y1="190.63" x2="264.46" y2="190.63" xlink:href="#linear-gradient"/>
  </defs>
  <g>
    <path class="cls-1" d="M152.37,105.52c-6.63,2.49-11.05,4-15.35,5.78-35.4,14.72-55.13,54.83-40.77,90.03,7.52,18.42,8.21,36.27,8.34,54.97,.06,7.66,0,15.32,0,24.44-4.17-1.79-7.3-2.8-10.1-4.39-23.47-13.36-47.12-26.44-70.11-40.58-4.37-2.69-8.48-9.6-8.65-14.7-.93-27.43-.96-54.91-.29-82.35,.12-4.78,3.85-11.34,7.91-13.86,24.02-14.93,48.53-29.1,73.17-43,3.36-1.9,9.25-2.53,12.49-.87,14.07,7.21,27.6,15.48,43.35,24.53Z"/>
    <path class="cls-7" d="M116.76,283.4c.16,3.13,4.42,6.95,7.72,8.89,24.34,14.36,48.79,28.56,73.56,42.15,3.59,1.97,10.06,2.17,13.56,.23,25.09-13.9,49.82-28.47,74.49-43.12,2.97-1.76,6.74-5.12,6.97-8,.84-10.4,.33-20.91,.33-32.14-34.34,0-66.43,.05-98.52-.02-26.75-.06-54.23,3.47-78.48-18.4,0,19.07-.43,34.76,.36,50.4Z"/>
    <path class="cls-5" d="M292.57,75.93c-.4-3.84-3.37-8.79-6.65-10.74-25.07-14.94-50.45-29.39-75.94-43.61-2.82-1.57-7.84-2.25-10.4-.8-27.56,15.57-54.83,31.66-83.99,48.66,20.61,11.81,39.5,22.71,58.49,33.43,2.54,1.43,5.61,2.72,8.44,2.73,36.03,.18,72.07,.12,110.35,.12,0-11.1,.65-20.52-.31-29.78Z"/>
  </g>
  <g>
    <g>
      <path class="cls-6" d="M397.21,192.74c-.8,6.32-7.34,12.46-13.32,12.51-11.09,.09-22.18,.08-33.27,0-5.88-.04-9.85-4.98-8.35-10.67,2.7-10.21,5.62-20.37,8.64-30.49,1.51-5.06,7.3-11.03,14.93-10.77,10.07,.34,20.16,.07,30.24,.09,7.51,.02,11.26,4.87,9.26,12.08-2.01,7.2-4.13,14.38-6.27,21.54-.21,.69-.87,1.77-1.35,1.78-4.86,.13-9.72,.08-14.88,.08,2.23-7.76,4.37-15.2,6.57-22.84-.84-.13-1.43-.31-2.01-.31-6.36-.02-12.72,.02-19.08-.02-1.43,0-2.34,.39-2.76,1.85-2.27,7.93-4.6,15.85-6.89,23.77-.1,.35-.06,.74-.1,1.39h38.62Z"/>
      <path class="cls-10" d="M333,188.87c.43,0,1.18-.38,1.24-.7,.49-2.47,1.38-5.02,1.13-7.44-.45-4.42-4.54-7.17-9.92-7.21-7.13-.05-14.26,0-21.4-.02-.88,0-1.77-.12-2.91-.2,.47-1.71,.98-3.09,1.2-4.51,.39-2.45,1.68-3.16,4.16-3.12,9.92,.15,19.85,.08,29.77,.03,.74,0,1.99-.31,2.12-.74,1.14-3.72,2.08-7.5,3.16-11.55-1.21,0-1.97,0-2.73,0-11.86,0-23.72-.01-35.58,0-7.13,.01-12.64,3.81-15.02,10.52-1.1,3.12-1.96,6.33-2.81,9.53-1.65,6.24,1.95,11.21,8.47,11.4,7.13,.2,14.26,.11,21.39,.13q3.82,.01,3.39,3.91c4.89,0,9.61,.02,14.33-.03Z"/>
      <path class="cls-8" d="M419.83,205.43c1.6,.04,2.31-.46,2.74-2.02,1.52-5.58,3.28-11.1,4.77-16.68,.47-1.79,1.3-2.26,3.06-2.25,7.52,.06,15.05,.01,22.57-.08,.78,0,2.06-.39,2.25-.9,1.04-2.95,1.82-6,2.81-9.4h-26.86c.37-1.64,.66-2.93,.99-4.41-4.58,0-8.84,.1-13.1-.04-1.85-.06-2.68,.43-3.19,2.31-2.04,7.52-4.3,14.97-6.46,22.46-1.02,3.54-2.01,7.09-3.12,10.99,4.75,0,9.15-.07,13.55,.04Z"/>
      <path class="cls-9" d="M524.25,153.31c-5.12,0-10.24,0-15.35,0-11.63,0-23.26-.02-34.9,.04-.78,0-2.08,.37-2.24,.86-1.25,3.69-2.28,7.45-3.47,11.52,1.22,0,2.05,0,2.89,0,5.27,0,10.55,0,15.82,0,11.55,0,23.1,.03,34.65-.05,.7,0,1.83-.64,2.03-1.23,1.19-3.57,2.18-7.21,3.32-11.15-1.09,0-1.92,0-2.75,0Z"/>
      <path class="cls-3" d="M281.84,192.93c-1.06,4.06-2.13,8.11-3.24,12.36,1.03,0,1.8,0,2.57,0,12.09,0,24.18,0,36.28,0,7.82,0,13.32-4.35,15.4-12.36h-51.01Z"/>
      <path class="cls-4" d="M467.32,153.39c-14.89-.03-29.79-.06-44.68-.03-.53,0-1.39,.52-1.54,.98-1.16,3.65-2.18,7.35-3.23,10.97,.31,.2,.44,.36,.56,.36,14.89,.03,29.79,.05,44.68,0,.54,0,1.39-.68,1.56-1.21,1.15-3.58,2.17-7.22,3.22-10.8-.3-.14-.44-.26-.57-.26Z"/>
      <path class="cls-14" d="M490.02,205.44c1.75,.05,2.39-.61,2.84-2.21,2.81-9.94,5.72-19.86,8.6-29.78,.31-1.06,.59-2.13,.96-3.44-4.78,0-9.2,.08-13.6-.04-1.63-.04-2.26,.53-2.68,2.04-2.44,8.69-4.98,17.34-7.5,26.01-.68,2.35-1.37,4.7-2.15,7.38,4.73,0,9.14-.08,13.53,.04Z"/>
    </g>
    <g>
      <g>
        <path class="cls-15" d="M131.13,205.22c.56-.01,1.41-.82,1.61-1.43,1.07-3.3,1.98-6.65,2.94-9.99,1.64-5.72,1.64-5.68,7.69-5.59,1.35,.02,2.08,.47,2.67,1.68,2.27,4.64,4.63,9.25,7.03,13.83,.34,.64,1.13,1.46,1.72,1.48,5.55,.11,11.09,.07,17.06,.07-3.45-5.8-6.69-11.26-10.06-16.93,.82-.11,1.19-.19,1.56-.2,8.34-.24,13.5-5.52,15.4-11.59,1.29-4.12,2.47-8.28,3.51-12.47,1.34-5.34-2.48-10.54-8.04-10.6-13.72-.15-27.45-.08-41.18-.02-.55,0-1.44,.6-1.61,1.1-1.16,3.57-2.17,7.19-3.38,11.3h37.99c-.96,3.37-1.69,6.28-2.68,9.11-.21,.61-1.33,1.24-2.06,1.27-3.17,.14-6.36,.06-9.54,.06-3.54,0-7.09,0-10.91,0,.63-2.37,1.17-4.39,1.73-6.51h-15.68c-3.41,11.76-6.81,23.45-10.3,35.51,5.06,0,9.78,.05,14.5-.07Z"/>
        <path class="cls-13" d="M227.82,205.43c1.53,.03,2.15-.52,2.55-1.95,1.54-5.65,3.13-11.29,4.88-16.89,.38-1.21,1.24-2.51,2.25-3.26,12.4-9.27,24.87-18.44,37.32-27.64,.84-.62,1.66-1.26,2.48-1.89-4.09-.49-8.03-.24-11.92-.56-4.21-.35-7.55,.86-10.76,3.59-4.16,3.54-8.7,6.65-13.07,9.95-.14-.08-.28-.17-.42-.25,1.21-4.31,2.42-8.63,3.7-13.22-4.58,0-8.83,.1-13.08-.04-1.94-.06-2.83,.5-3.38,2.46-3.22,11.51-6.58,22.98-9.9,34.46-1.43,4.95-2.87,9.89-4.41,15.22,4.82,0,9.29-.06,13.76,.03Z"/>
        <path class="cls-12" d="M200.14,153.36c-1.73-.05-2.37,.56-2.83,2.18-3.6,12.67-7.31,25.32-10.98,37.97-1.11,3.83-2.22,7.66-3.42,11.78,4.82,0,9.3-.08,13.78,.04,1.55,.04,2.14-.52,2.53-1.93,1.79-6.38,3.67-12.74,5.51-19.1,2.96-10.21,5.92-20.41,8.96-30.9-4.75,0-9.16,.08-13.57-.04Z"/>
      </g>
      <path class="cls-11" d="M246.48,205.21h17.98c-3.39-9.74-6.73-19.31-10.16-29.15-4.76,3.48-9.28,6.8-13.9,10.18,2.04,6.37,4.05,12.67,6.07,18.97Z"/>
    </g>
  </g>
  <polygon class="cls-2" points="54.05 146.55 61.52 169.35 85.51 169.4 66.13 183.55 73.5 206.38 54.05 192.32 34.61 206.38 41.98 183.55 22.6 169.4 46.59 169.35 54.05 146.55"/>
</svg>